<svg viewBox="0 0 32 32" fill="none" xmlns="http://www.w3.org/2000/svg"><path d="M26.531 17.467c-.901 5.475-5.661 9.61-11.277 9.301-5.466-.301-9.944-4.928-10.235-10.577-.299-5.803 3.702-10.722 9.002-11.653a2.2 2.2 0 0 0 1.823-2.177c0-1.362-1.186-2.397-2.486-2.174C5.895 1.465.281 8.396.772 16.578c.467 7.772 6.588 14.097 14.109 14.578 7.918.508 14.624-5.294 15.861-13.004.215-1.345-.785-2.571-2.104-2.571-1.058 0-1.929.807-2.106 1.885" fill="#1c009c"/><path d="M26.127 12.352h-.005c-.346-1.156.281-2.395 1.4-2.754 1.125-.362 2.318.286 2.67 1.449.351 1.156-.276 2.39-1.4 2.754a2 2 0 0 1-.771.095 2.13 2.13 0 0 1-1.894-1.544m-2.689-4.59a2.25 2.25 0 0 1 .005-3.11 2.085 2.085 0 0 1 3.015.005 2.25 2.25 0 0 1-.005 3.115 2.08 2.08 0 0 1-3.014-.01m-4.428-2.781c-1.12-.365-1.747-1.597-1.394-2.761.351-1.156 1.544-1.805 2.67-1.44 1.12.365 1.747 1.597 1.394 2.761-.301.986-1.212 1.6-2.166 1.538a2.2 2.2 0 0 1-.504-.097" fill="#1c009c"/></svg>