<svg viewBox="0 0 142 33" fill="none" xmlns="http://www.w3.org/2000/svg"><path d="M67.292 10.9c-2.415.003-4.312.733-5.637 2.17-1.324 1.434-1.994 3.492-1.99 6.114.002 2.613.677 4.661 2.003 6.087 1.329 1.428 3.229 2.15 5.649 2.148 2.41-.003 4.306-.733 5.636-2.169 1.329-1.435 2.002-3.482 1.998-6.083-.003-2.623-.68-4.679-2.012-6.11-1.334-1.434-3.234-2.16-5.648-2.156m3.073 11.957c-.664.787-1.691 1.187-3.052 1.189-1.372.002-2.405-.393-3.07-1.175-.67-.786-1.01-2.028-1.012-3.69-.002-1.673.336-2.921 1.003-3.71.664-.782 1.695-1.18 3.067-1.182 1.37-.002 2.401.393 3.062 1.174.665.787 1.002 2.034 1.004 3.706.002 1.653-.336 2.892-1.004 3.686zM94.425 11.17l-4.698.007-.003-2.254c0-.944-.485-1.443-1.4-1.442h-.787c-.915.002-1.397.502-1.396 1.446l.013 12.441c.002 1.319.221 2.442.654 3.338.435.904 1.043 1.57 1.806 1.981.754.408 1.664.649 2.704.716q.255.016.518.017c.892-.001 1.853-.149 2.858-.438.73-.16 1.098-.682 1.097-1.552v-.501q0-.651-.315-.949c-.207-.197-.562-.292-1.084-.29-.19 0-.514.038-.99.12a7.5 7.5 0 0 1-1.224.116c-.882 0-1.515-.196-1.884-.586-.37-.39-.557-1.056-.558-1.978l-.007-6.828 4.698-.006c.904 0 1.382-.5 1.38-1.446v-.484q.006-.7-.34-1.063c-.233-.243-.584-.366-1.044-.366zm14.667 1.536c-1.27-1.014-2.99-1.527-5.111-1.524-1.407.001-2.972.199-4.653.588-.938.235-1.413.79-1.412 1.646v.423c0 .499.145.866.43 1.088.28.221.665.281 1.145.18 1.612-.344 2.996-.518 4.114-.52 2.61-.003 3.881.886 3.882 2.719v.295l-4.53.005c-1.937.002-3.423.37-4.414 1.093-1.005.734-1.514 2.019-1.512 3.82.002 1.79.513 3.072 1.52 3.808.993.727 2.478 1.093 4.416 1.092l3.245-.004c1.703-.002 2.946-.376 3.693-1.113.749-.738 1.128-1.943 1.126-3.58l-.006-5.421c-.003-2.027-.653-3.573-1.933-4.596zm-1.6 8.112.002 1.737c0 .572-.109.994-.325 1.257-.212.256-.662.387-1.338.387l-2.851.004c-.988 0-1.658-.125-1.989-.373-.319-.24-.481-.682-.482-1.314 0-.644.157-1.089.47-1.323.326-.244.998-.368 1.997-.37l4.515-.005zm16.902-15.9c-.676 0-1.198.203-1.554.599-.353.394-.532.945-.531 1.638 0 .694.18 1.242.535 1.63.356.39.879.588 1.554.587.676 0 1.193-.2 1.539-.591.343-.389.517-.937.516-1.63 0-.693-.175-1.244-.519-1.637-.347-.396-.865-.597-1.54-.597zm.394 6.562h-.834q-.664.001-1.012.355c-.236.241-.355.603-.354 1.074v13.067c.001.945.499 1.444 1.414 1.443h.803c.914-.002 1.383-.502 1.381-1.447V12.905c-.001-.934-.485-1.427-1.399-1.426zm15.892 7.873c-.712-.76-1.814-1.342-3.275-1.731l-3.745-.983c-.816-.224-1.213-.608-1.213-1.175 0-.37.186-.65.57-.859.407-.22.947-.348 1.608-.379a15 15 0 0 1 2.203.076c.792.082 1.602.223 2.408.417q.741.2 1.168-.134c.284-.223.427-.589.426-1.089v-.376c-.001-.845-.4-1.382-1.185-1.595a16.8 16.8 0 0 0-3.895-.61c-1.26-.042-2.409.083-3.417.368-1.02.29-1.851.801-2.469 1.522-.624.726-.94 1.638-.938 2.71.002 2.24 1.392 3.744 4.13 4.475l3.442.936c.626.171 1.085.381 1.364.623.266.232.396.537.397.928 0 .47-.192.827-.587 1.093-.408.273-.986.427-1.719.46-.747.032-1.566.003-2.432-.084a25 25 0 0 1-2.861-.473q-.739-.15-1.154.183c-.279.223-.419.59-.418 1.09v.39c.002.845.389 1.387 1.154 1.61a16.3 16.3 0 0 0 4.58.675c1.138-.001 2.198-.136 3.158-.4 1.12-.31 2.04-.87 2.734-1.663.7-.8 1.054-1.812 1.052-3.01-.002-1.22-.366-2.227-1.084-2.994zm-62.883 2.174c.002 1.32.252 2.442.685 3.338.435.904 1.043 1.57 1.806 1.981a5.8 5.8 0 0 0 1.458.539q.152.034.303.034c.627 0 1.2-.444 1.378-1.11l.152-.579c.205-.773-.195-1.567-.91-1.806a1.7 1.7 0 0 1-.7-.424c-.37-.39-.573-1.056-.574-1.978V6.36c0-.945-.485-1.443-1.399-1.442h-.803c-.915.001-1.397.501-1.396 1.447zm-28.56 5.893c-1.38.001-2.478-.372-3.261-1.111-.777-.731-1.446-2.009-1.988-3.8L39.234 6.58c-.143-.498-.107-.902.109-1.202.215-.299.575-.451 1.068-.451h.833l.034-.002c.788 0 1.296.392 1.512 1.17l4.709 15.899c.226.802.473 1.357.732 1.648.25.283.578.42 1 .42s.75-.138 1-.422c.26-.293.504-.848.73-1.65l4.674-15.91c.215-.778.723-1.173 1.51-1.173h.866c.494-.002.854.149 1.07.448q.325.452.112 1.202l-4.72 15.94c-.538 1.791-1.204 3.07-1.979 3.804-.782.74-1.878 1.117-3.258 1.119m65.002-5.893c.002 1.32.253 2.442.685 3.338.436.904 1.044 1.57 1.807 1.981a5.8 5.8 0 0 0 1.457.539q.153.034.303.034c.628 0 1.201-.444 1.378-1.11l.152-.579c.205-.773-.195-1.567-.91-1.806a1.7 1.7 0 0 1-.699-.424c-.37-.39-.574-1.056-.575-1.978V6.36c-.001-.945-.484-1.443-1.398-1.442h-.804c-.914.001-1.397.501-1.396 1.447zM27.36 18.013c-.929 5.646-5.838 9.91-11.629 9.592-5.637-.31-10.255-5.082-10.555-10.908C4.868 10.713 8.994 5.64 14.459 4.68a2.27 2.27 0 0 0 1.88-2.245c0-1.405-1.223-2.472-2.564-2.242C6.079 1.511.29 8.658.796 17.096c.482 8.015 6.794 14.538 14.55 15.034 8.165.524 15.081-5.459 16.357-13.41.222-1.387-.81-2.651-2.17-2.651-1.091 0-1.989.832-2.172 1.944" fill="#1c009c"/><path d="M26.943 12.738h-.005c-.357-1.192.29-2.47 1.444-2.84 1.16-.373 2.39.295 2.753 1.494.362 1.192-.285 2.465-1.444 2.84a2.1 2.1 0 0 1-.795.098 2.2 2.2 0 0 1-1.953-1.592M24.17 8.005a2.32 2.32 0 0 1 .005-3.207 2.15 2.15 0 0 1 3.109.005c.86.89.855 2.324-.005 3.212a2.146 2.146 0 0 1-3.108-.01m-4.566-2.868c-1.155-.376-1.802-1.647-1.438-2.847C18.53 1.097 19.76.428 20.921.804c1.155.376 1.802 1.647 1.438 2.847-.31 1.017-1.25 1.65-2.234 1.586a2.3 2.3 0 0 1-.52-.1" fill="#1c009c"/></svg>